PathFileType	4	(X/Y/Z)	C:\Github\FootballMatch-and-Movement-Analysis\output\test Exam_2026-03-06_135002_tvc2_Sports2D\test Exam_2026-03-06_135002_tvc2_Sports2D_px_person00.trc
DataRate	CameraRate	NumFrames	NumMarkers	Units	OrigDataRate	OrigDataStartFrame	OrigNumFrames
30.0	30.0	7	22	m	30.0	0	516
Frame#	Time	Hip			RHip			RKnee			RAnkle			RBigToe			RSmallToe			RHeel			LHip			LKnee			LAnkle			LBigToe			LSmallToe			LHeel			Neck			Head			Nose			RShoulder			RElbow			RWrist			LShoulder			LElbow			LWrist			
		X1	Y1	Z1	X2	Y2	Z2	X3	Y3	Z3	X4	Y4	Z4	X5	Y5	Z5	X6	Y6	Z6	X7	Y7	Z7	X8	Y8	Z8	X9	Y9	Z9	X10	Y10	Z10	X11	Y11	Z11	X12	Y12	Z12	X13	Y13	Z13	X14	Y14	Z14	X15	Y15	Z15	X16	Y16	Z16	X17	Y17	Z17	X18	Y18	Z18	X19	Y19	Z19	X20	Y20	Z20	X21	Y21	Z21	X22	Y22	Z22
0	0.0	334.4068026244256	699.1053096112039	0.0	296.5743449940667	712.4585535137128	0.0	298.79952142588485	866.0136236545061	0.0	307.70141635116204	1008.442026112378	0.0	298.79913936013185	1066.303904010332	0.0	276.5448491556901	1059.6271827207313	0.0	318.82866180804245	1026.2460729025204	0.0	376.690279968683	710.2333576916596	0.0	396.7193730526439	861.5629338210013	0.0	418.97357207695876	995.0895509037725	0.0	430.1008166668365	1055.1764852865215	0.0	450.12985330604874	1046.274747213066	0.0	412.2970380099499	1012.8931020929615	0.0	318.82865158343475	436.50291805330306	0.0	289.89804817928166	336.3576372821397	0.0	256.5161408530606	394.219022714418	0.0	254.29053406912615	483.23669129365453	0.0	196.42889340230843	558.9018344168546	0.0	243.16344779130728	627.890804605214	0.0	403.39561259856606	469.8842488123628	0.0	479.06073229652463	550.0002508450432	0.0	430.10063429849396	634.5673314678871	0.0
1	0.033398058252427185	333.94695139650446	698.3277771556315	0.0	295.41530458998693	711.1242477250054	0.0	298.34884582196077	865.2623643615082	0.0	307.9383528971513	1008.4700559836824	0.0	298.433736789301	1067.1319471979727	0.0	276.8393806491648	1060.436294886951	0.0	318.19983424574156	1026.9546159560775	0.0	376.2337149738838	708.7848455721639	0.0	396.234617518196	861.6395186277913	0.0	418.71413739785186	995.8816435952125	0.0	429.6858030707276	1055.3177269393789	0.0	449.67109120532047	1046.4770907724212	0.0	411.9194609471162	1013.0180318982038	0.0	317.68179132352833	436.24925723909286	0.0	288.9229324089791	335.4465962402097	0.0	256.12620604636203	394.13251938048677	0.0	253.95257989440452	483.2658470568143	0.0	196.1310820465858	559.5403512004057	0.0	241.9663590683092	627.7763938397211	0.0	403.004892668628	469.76199629374946	0.0	478.8852035894636	549.0544574490712	0.0	429.81494765931916	634.5778674112914	0.0
2	0.06679611650485437	333.32702235029774	697.4787223287627	0.0	294.38137614417843	709.6190121697931	0.0	298.15774124170264	864.8431601673008	0.0	308.10377445854806	1007.9628092876708	0.0	298.30416305584424	1067.3811079863494	0.0	277.51101724634225	1060.8945762356493	0.0	317.73966801035965	1026.6466536289204	0.0	375.82608124964986	707.6368185087297	0.0	395.7210778666326	861.2488475862156	0.0	418.6311478747346	996.2882793660318	0.0	429.3496054979795	1055.4705452417768	0.0	449.2874697562289	1046.5525950804076	0.0	412.1731328598771	1012.9351581439932	0.0	316.11805177844246	436.03640085804545	0.0	286.9387081956346	334.3800157526724	0.0	255.27134456257278	394.0378040313178	0.0	253.0940201006739	483.3214134269441	0.0	195.51424113091298	559.9913759846518	0.0	240.9298629367267	627.6604738375069	0.0	401.87213585294927	469.2142162232612	0.0	478.42572028527155	547.9708604629546	0.0	429.3006632463564	634.3513160498117	0.0
3	0.10019417475728155	332.80142936574833	696.8848339213507	0.0	293.91136123134856	708.375147305506	0.0	298.5327241135014	865.128025067082	0.0	308.31782123631103	1007.0446331936723	0.0	298.4396947016632	1066.9997306579314	0.0	278.5547774568948	1060.8311425856648	0.0	318.0067824802257	1025.4179845376811	0.0	375.6650341603433	707.2622219224377	0.0	395.58482576440053	860.3998755587157	0.0	418.74048996645047	996.10255744141	0.0	429.26326754338766	1055.5694558807636	0.0	449.35749661822535	1046.3022935171623	0.0	413.131572534816	1012.6288864080461	0.0	314.5069388257041	436.02467383708114	0.0	284.080662866832	333.5537700453547	0.0	253.98832345899183	393.92829782177927	0.0	251.603559675422	483.20276940806804	0.0	194.51556825108625	560.2285196358408	0.0	240.46064127735008	627.7516793451287	0.0	400.13452134720217	468.3791058966087	0.0	477.4155208753836	547.3234785101151	0.0	428.50756168494354	633.8520508702568	0.0
4	0.13359223300970874	332.5095618786005	696.7293391496368	0.0	293.9447275055398	708.0388646468009	0.0	299.3292802631003	865.753957044345	0.0	308.6734867599532	1006.4238332122676	0.0	298.4327658599628	1066.9110545943925	0.0	279.54799649246905	1060.6978671975835	0.0	318.99384095422204	1024.6516789018908	0.0	375.4751012187659	707.4213974843511	0.0	396.0319623783246	859.6649100142535	0.0	418.94637877011127	995.7015632588939	0.0	429.1682607472133	1055.5535744466863	0.0	449.91531185979693	1045.8120932869024	0.0	413.9724733340856	1012.3686437431853	0.0	313.20141970982155	435.85401081980814	0.0	281.4330857346336	333.2534774446864	0.0	252.5548944468463	393.7939728644701	0.0	249.73576833421384	482.8155813417479	0.0	193.40738039777375	560.6672400074013	0.0	240.15983942830542	628.0908287544918	0.0	398.4470372087552	467.7877661742762	0.0	475.93701772065316	547.3534975674268	0.0	427.51916329287013	633.281520583391	0.0
5	0.16699029126213594	332.21389376050126	696.858977647195	0.0	293.9382177173798	708.6017058047422	0.0	299.88402857976115	865.8205555446018	0.0	308.9177175469978	1006.6320588935718	0.0	298.0089775998262	1067.5402155131228	0.0	279.97379563995594	1060.9517222707052	0.0	320.0184200014654	1025.240452792102	0.0	374.831480756893	707.2944083130275	0.0	396.65722299526044	859.3665746433438	0.0	419.1225332457345	995.5846859948103	0.0	428.6726659723356	1055.2874824163837	0.0	450.349054212033	1045.434856635625	0.0	414.1093907840182	1012.2159425372155	0.0	312.1140636063363	435.22200286173245	0.0	279.74055105542374	333.2804043647079	0.0	251.30100516325666	393.77537558350474	0.0	248.05363804555327	482.5151014632524	0.0	192.40131306541429	561.448438188639	0.0	239.1643139272735	628.2970677635799	0.0	397.18227028766796	467.6462494922313	0.0	474.75552746224224	547.4889320045776	0.0	426.640692939592	632.8376078272483	0.0
6	0.2003883495145631	331.8563826079743	697.1422639482576	0.0	293.7117181650027	709.0368470833704	0.0	299.79009458390857	865.1939859119007	0.0	308.9767511608202	1007.5671143659545	0.0	297.4692847707494	1068.0603573812414	0.0	279.73347405110894	1061.019039085226	0.0	320.73211370753984	1026.7292560661963	0.0	374.21185291014905	706.4621530286122	0.0	397.0044206269766	859.3206457036455	0.0	419.1347203377202	995.7492417127876	0.0	428.10492176320713	1054.6075044293118	0.0	450.3036786968983	1045.2716617243095	0.0	413.9376649316906	1011.9287716508109	0.0	311.0917810802407	434.9080194905145	0.0	278.7471698602388	333.24955121897517	0.0	250.70832567320753	394.17499184989174	0.0	247.07274130507477	482.51596737729886	0.0	191.32093240490377	562.0403063651764	0.0	237.78225873497004	628.2979798062652	0.0	396.35620192151674	467.7074093534414	0.0	474.494816434515	547.636178329721	0.0	426.1373116645581	632.8014426404579	0.0
